<svg xmlns="http://www.w3.org/2000/svg" xmlns:xlink="http://www.w3.org/1999/xlink" width="482" zoomAndPan="magnify" viewBox="0 0 361.5 92.999996" height="124" preserveAspectRatio="xMidYMid meet" version="1.0"><defs><g/><clipPath id="ef4b9fe7ce"><path d="M 12.054688 8.082031 L 23.574219 8.082031 L 23.574219 19.601562 L 12.054688 19.601562 Z M 12.054688 8.082031 " clip-rule="nonzero"/></clipPath><clipPath id="cbdb6e3f78"><path d="M 17.816406 8.082031 C 14.636719 8.082031 12.054688 10.660156 12.054688 13.839844 C 12.054688 17.019531 14.636719 19.601562 17.816406 19.601562 C 20.996094 19.601562 23.574219 17.019531 23.574219 13.839844 C 23.574219 10.660156 20.996094 8.082031 17.816406 8.082031 Z M 17.816406 8.082031 " clip-rule="nonzero"/></clipPath><clipPath id="5b1df38f8a"><path d="M 0.0546875 0.0820312 L 11.574219 0.0820312 L 11.574219 11.601562 L 0.0546875 11.601562 Z M 0.0546875 0.0820312 " clip-rule="nonzero"/></clipPath><clipPath id="fd682fd345"><path d="M 5.816406 0.0820312 C 2.636719 0.0820312 0.0546875 2.660156 0.0546875 5.839844 C 0.0546875 9.019531 2.636719 11.601562 5.816406 11.601562 C 8.996094 11.601562 11.574219 9.019531 11.574219 5.839844 C 11.574219 2.660156 8.996094 0.0820312 5.816406 0.0820312 Z M 5.816406 0.0820312 " clip-rule="nonzero"/></clipPath><clipPath id="929e7ebffd"><rect x="0" width="12" y="0" height="12"/></clipPath><clipPath id="ab1015b5c2"><path d="M 0.183594 13 L 36 13 L 36 55 L 0.183594 55 Z M 0.183594 13 " clip-rule="nonzero"/></clipPath><clipPath id="baf257d887"><path d="M 325.71875 0.472656 L 342.511719 0.472656 L 342.511719 17.265625 L 325.71875 17.265625 Z M 325.71875 0.472656 " clip-rule="nonzero"/></clipPath><clipPath id="ffb4619dcf"><rect x="0" width="343" y="0" height="68"/></clipPath></defs><g transform="matrix(1, 0, 0, 1, 13, 7)"><g clip-path="url(#ffb4619dcf)"><g clip-path="url(#ef4b9fe7ce)"><g clip-path="url(#cbdb6e3f78)"><g transform="matrix(1, 0, 0, 1, 12, 8)"><g clip-path="url(#929e7ebffd)"><g clip-path="url(#5b1df38f8a)"><g clip-path="url(#fd682fd345)"><path fill="#cf1950" d="M 0.0546875 0.0820312 L 11.574219 0.0820312 L 11.574219 11.601562 L 0.0546875 11.601562 Z M 0.0546875 0.0820312 " fill-opacity="1" fill-rule="nonzero"/></g></g></g></g></g></g><g clip-path="url(#ab1015b5c2)"><g fill="#000000" fill-opacity="1"><g transform="translate(0.21818, 53.292976)"><g><path d="M 16.75 0.828125 L 0.328125 -39.671875 L 9.484375 -39.671875 L 14.765625 -26.46875 L 17.640625 -18.25 L 20.46875 -26.1875 L 25.796875 -39.671875 L 34.953125 -39.671875 L 18.53125 0.828125 Z M 16.75 0.828125 "/></g></g></g></g><g fill="#000000" fill-opacity="1"><g transform="translate(35.559148, 53.292976)"><g><path d="M 12.375 0 L 4.4375 0 L 4.4375 -39.671875 L 12.375 -39.671875 Z M 12.375 0 "/></g></g></g><g fill="#000000" fill-opacity="1"><g transform="translate(52.425173, 53.292976)"><g><path d="M 18.921875 0 L 10.984375 0 L 10.984375 -31.734375 L 1.109375 -31.734375 L 1.109375 -39.609375 L 28.796875 -39.609375 L 28.796875 -31.734375 L 18.921875 -31.734375 Z M 18.921875 0 "/></g></g></g><g fill="#000000" fill-opacity="1"><g transform="translate(82.772908, 53.292976)"><g><path d="M 12.375 0 L 4.4375 0 L 4.4375 -39.671875 L 12.375 -39.671875 Z M 12.375 0 "/></g></g></g><g fill="#000000" fill-opacity="1"><g transform="translate(99.638932, 53.292976)"><g><path d="M 12.375 -21.578125 L 12.375 0 L 4.4375 0 L 4.4375 -40.5 L 6.546875 -40.5 L 26.578125 -17.203125 L 26.578125 -39.609375 L 34.5625 -39.609375 L 34.5625 0.828125 L 32.453125 0.828125 Z M 12.375 -21.578125 "/></g></g></g><g fill="#000000" fill-opacity="1"><g transform="translate(138.697081, 53.292976)"><g><path d="M 24.96875 0 L 4.4375 0 L 4.4375 -39.671875 L 24.296875 -39.671875 L 24.296875 -31.734375 L 12.375 -31.734375 L 12.375 -23.796875 L 22.796875 -23.796875 L 22.796875 -15.875 L 12.375 -15.875 L 12.375 -7.9375 L 24.96875 -7.9375 Z M 24.96875 0 "/></g></g></g><g fill="#000000" fill-opacity="1"><g transform="translate(166.659161, 53.292976)"><g><path d="M 24.1875 0 L 16.203125 -15.140625 L 12.375 -15.140625 L 12.375 0 L 4.4375 0 L 4.4375 -39.671875 L 20.078125 -39.671875 C 22.453125 -39.671875 24.460938 -39.179688 26.109375 -38.203125 C 27.753906 -37.222656 29.035156 -35.945312 29.953125 -34.375 C 30.878906 -32.800781 31.453125 -31.097656 31.671875 -29.265625 C 31.898438 -27.429688 31.765625 -25.632812 31.265625 -23.875 C 30.765625 -22.125 29.910156 -20.570312 28.703125 -19.21875 C 27.503906 -17.875 25.925781 -16.925781 23.96875 -16.375 L 33.171875 0 Z M 12.375 -22.859375 L 19.359375 -22.859375 C 20.429688 -22.859375 21.289062 -23.15625 21.9375 -23.75 C 22.59375 -24.34375 23.03125 -25.082031 23.25 -25.96875 C 23.46875 -26.851562 23.46875 -27.738281 23.25 -28.625 C 23.03125 -29.519531 22.59375 -30.257812 21.9375 -30.84375 C 21.289062 -31.4375 20.429688 -31.734375 19.359375 -31.734375 L 12.375 -31.734375 Z M 12.375 -22.859375 "/></g></g></g><g fill="#000000" fill-opacity="1"><g transform="translate(200.668593, 53.292976)"><g><path d="M 0.890625 0 L 17.59375 -41.109375 L 18.421875 -41.109375 L 35.125 0 L 26.1875 0 L 24.578125 -4.265625 L 11.4375 -4.265625 L 9.875 0 Z M 14.3125 -11.703125 L 21.640625 -11.703125 L 18.03125 -22.03125 Z M 14.3125 -11.703125 "/></g></g></g><g fill="#000000" fill-opacity="1"><g transform="translate(236.897241, 53.292976)"><g><path d="M 24.1875 0 L 16.203125 -15.140625 L 12.375 -15.140625 L 12.375 0 L 4.4375 0 L 4.4375 -39.671875 L 20.078125 -39.671875 C 22.453125 -39.671875 24.460938 -39.179688 26.109375 -38.203125 C 27.753906 -37.222656 29.035156 -35.945312 29.953125 -34.375 C 30.878906 -32.800781 31.453125 -31.097656 31.671875 -29.265625 C 31.898438 -27.429688 31.765625 -25.632812 31.265625 -23.875 C 30.765625 -22.125 29.910156 -20.570312 28.703125 -19.21875 C 27.503906 -17.875 25.925781 -16.925781 23.96875 -16.375 L 33.171875 0 Z M 12.375 -22.859375 L 19.359375 -22.859375 C 20.429688 -22.859375 21.289062 -23.15625 21.9375 -23.75 C 22.59375 -24.34375 23.03125 -25.082031 23.25 -25.96875 C 23.46875 -26.851562 23.46875 -27.738281 23.25 -28.625 C 23.03125 -29.519531 22.59375 -30.257812 21.9375 -30.84375 C 21.289062 -31.4375 20.429688 -31.734375 19.359375 -31.734375 L 12.375 -31.734375 Z M 12.375 -22.859375 "/></g></g></g><g fill="#000000" fill-opacity="1"><g transform="translate(270.906684, 53.292976)"><g><path d="M 12.375 0 L 4.4375 0 L 4.4375 -39.671875 L 12.375 -39.671875 Z M 12.375 0 "/></g></g></g><g fill="#000000" fill-opacity="1"><g transform="translate(287.772719, 53.292976)"><g><path d="M 23.53125 0.5625 C 20.125 0.5625 17.132812 -0.0078125 14.5625 -1.15625 C 11.988281 -2.3125 9.851562 -3.859375 8.15625 -5.796875 C 6.457031 -7.742188 5.179688 -9.9375 4.328125 -12.375 C 3.472656 -14.8125 3.046875 -17.316406 3.046875 -19.890625 C 3.046875 -22.460938 3.472656 -24.96875 4.328125 -27.40625 C 5.179688 -29.851562 6.457031 -32.046875 8.15625 -33.984375 C 9.851562 -35.921875 11.988281 -37.460938 14.5625 -38.609375 C 17.132812 -39.765625 20.125 -40.34375 23.53125 -40.34375 C 26.925781 -40.34375 29.910156 -39.765625 32.484375 -38.609375 C 35.054688 -37.460938 37.191406 -35.921875 38.890625 -33.984375 C 40.597656 -32.046875 41.875 -29.851562 42.71875 -27.40625 C 43.570312 -24.96875 44 -22.460938 44 -19.890625 C 44 -17.316406 43.570312 -14.8125 42.71875 -12.375 C 41.875 -9.9375 40.597656 -7.742188 38.890625 -5.796875 C 37.191406 -3.859375 35.054688 -2.3125 32.484375 -1.15625 C 29.910156 -0.0078125 26.925781 0.5625 23.53125 0.5625 Z M 23.53125 -7.65625 C 25.78125 -7.65625 27.71875 -8.097656 29.34375 -8.984375 C 30.976562 -9.867188 32.273438 -11.039062 33.234375 -12.5 C 34.191406 -13.96875 34.835938 -15.570312 35.171875 -17.3125 C 35.503906 -19.050781 35.503906 -20.789062 35.171875 -22.53125 C 34.835938 -24.269531 34.191406 -25.867188 33.234375 -27.328125 C 32.273438 -28.785156 30.976562 -29.957031 29.34375 -30.84375 C 27.71875 -31.738281 25.78125 -32.1875 23.53125 -32.1875 C 21.269531 -32.1875 19.328125 -31.738281 17.703125 -30.84375 C 16.078125 -29.957031 14.78125 -28.785156 13.8125 -27.328125 C 12.851562 -25.867188 12.207031 -24.269531 11.875 -22.53125 C 11.539062 -20.789062 11.539062 -19.050781 11.875 -17.3125 C 12.207031 -15.570312 12.851562 -13.96875 13.8125 -12.5 C 14.78125 -11.039062 16.078125 -9.867188 17.703125 -8.984375 C 19.328125 -8.097656 21.269531 -7.65625 23.53125 -7.65625 Z M 23.53125 -7.65625 "/></g></g></g><path fill="#000000" d="M 334.238281 8.871094 C 335.203125 8.871094 335.832031 8.347656 335.832031 7.386719 C 335.832031 6.421875 335.203125 5.960938 334.214844 5.960938 L 332.683594 5.960938 L 332.683594 8.871094 Z M 331.316406 4.710938 L 334.300781 4.710938 C 336.082031 4.710938 337.222656 5.664062 337.222656 7.363281 C 337.222656 8.644531 336.507812 9.453125 335.5 9.8125 L 337.449219 13.03125 L 335.855469 13.03125 L 334.097656 10.097656 C 334.085938 10.085938 333.65625 10.097656 333.644531 10.097656 L 332.683594 10.097656 L 332.683594 13.03125 L 331.316406 13.03125 L 331.316406 4.710938 " fill-opacity="1" fill-rule="nonzero"/><g clip-path="url(#baf257d887)"><path fill="#000000" d="M 334.113281 1.914062 C 333.175781 1.914062 332.265625 2.097656 331.40625 2.457031 C 330.578125 2.808594 329.835938 3.3125 329.195312 3.949219 C 328.558594 4.589844 328.054688 5.332031 327.707031 6.160156 C 327.34375 7.015625 327.160156 7.929688 327.160156 8.867188 C 327.160156 9.804688 327.34375 10.71875 327.707031 11.574219 C 328.054688 12.402344 328.558594 13.144531 329.195312 13.785156 C 329.835938 14.425781 330.578125 14.925781 331.40625 15.277344 C 332.265625 15.636719 333.175781 15.820312 334.113281 15.820312 C 335.054688 15.820312 335.964844 15.636719 336.820312 15.277344 C 337.648438 14.925781 338.394531 14.425781 339.03125 13.785156 C 339.671875 13.144531 340.171875 12.402344 340.523438 11.574219 C 340.886719 10.71875 341.070312 9.804688 341.070312 8.867188 C 341.070312 7.929688 340.886719 7.015625 340.523438 6.160156 C 340.171875 5.332031 339.671875 4.589844 339.03125 3.949219 C 338.394531 3.3125 337.648438 2.808594 336.820312 2.457031 C 335.964844 2.097656 335.054688 1.914062 334.113281 1.914062 Z M 334.113281 17.261719 C 332.980469 17.261719 331.882812 17.042969 330.847656 16.601562 C 329.847656 16.179688 328.949219 15.574219 328.175781 14.804688 C 327.40625 14.035156 326.800781 13.136719 326.378906 12.136719 C 325.941406 11.101562 325.71875 10 325.71875 8.867188 C 325.71875 7.734375 325.941406 6.632812 326.378906 5.597656 C 326.800781 4.597656 327.40625 3.699219 328.175781 2.929688 C 328.949219 2.160156 329.847656 1.554688 330.847656 1.132812 C 331.882812 0.691406 332.980469 0.472656 334.113281 0.472656 C 335.246094 0.472656 336.347656 0.691406 337.382812 1.132812 C 338.382812 1.554688 339.28125 2.160156 340.050781 2.929688 C 340.824219 3.699219 341.429688 4.597656 341.851562 5.597656 C 342.289062 6.632812 342.511719 7.734375 342.511719 8.867188 C 342.511719 10 342.289062 11.101562 341.851562 12.136719 C 341.429688 13.136719 340.824219 14.035156 340.050781 14.804688 C 339.28125 15.574219 338.382812 16.179688 337.382812 16.601562 C 336.347656 17.042969 335.246094 17.261719 334.113281 17.261719 " fill-opacity="1" fill-rule="nonzero"/></g></g></g></svg>